<svg xmlns="http://www.w3.org/2000/svg" viewBox="0 0 1600 1000"><defs><linearGradient id="sky" x2="0" y2="1"><stop stop-color="#263752"/><stop offset="1" stop-color="#d2a680"/></linearGradient><linearGradient id="land" x2="0" y2="1"><stop stop-color="#49716c"/><stop offset="1" stop-color="#0d1f2c"/></linearGradient></defs><rect width="1600" height="1000" fill="url(#sky)"/><circle cx="1220" cy="275" r="130" fill="#d2a680" opacity=".58"/><path d="M0 520 180 395 380 515 665 235 1020 550 1330 370 1600 500V1000H0Z" fill="#49716c" opacity=".48"/><path d="M0 650 315 475 630 640 965 490 1210 615 1600 510V1000H0Z" fill="url(#land)"/><path d="M0 820Q400 655 820 800T1600 710V1000H0Z" fill="#122b37" opacity=".7"/><path d="M835 635Q700 770 1110 860T1280 1060" fill="none" stroke="#beccb5" stroke-width="45" opacity=".23"/><g transform="translate(610 295) scale(1.25)" fill="#e0dfce" opacity=".8"><path d="M211 7h28v315h-28Z"/><path d="M48 55h300l66 47-66 47H48Zm-25 127h302v93H87l-64-46Z"/><path d="M110 102h205m-184 126h122" stroke="#31475b" stroke-width="15" stroke-linecap="round"/></g></svg>