<svg xmlns="http://www.w3.org/2000/svg" viewBox="0 0 1600 1000"><defs><linearGradient id="sky" x2="0" y2="1"><stop stop-color="#263448"/><stop offset="1" stop-color="#b4cbb3"/></linearGradient><linearGradient id="land" x2="0" y2="1"><stop stop-color="#3f6669"/><stop offset="1" stop-color="#0d1f2c"/></linearGradient></defs><rect width="1600" height="1000" fill="url(#sky)"/><circle cx="1220" cy="275" r="130" fill="#b4cbb3" opacity=".58"/><path d="M0 520 180 395 380 515 665 235 1020 550 1330 370 1600 500V1000H0Z" fill="#3f6669" opacity=".48"/><path d="M0 650 315 475 630 640 965 490 1210 615 1600 510V1000H0Z" fill="url(#land)"/><path d="M0 820Q400 655 820 800T1600 710V1000H0Z" fill="#122b37" opacity=".7"/><path d="M835 635Q700 770 1110 860T1280 1060" fill="none" stroke="#beccb5" stroke-width="45" opacity=".23"/><g transform="translate(610 295) scale(1.25)" fill="#e0dfce" opacity=".8"><rect x="83" y="10" width="284" height="274" rx="58"/><rect x="111" y="60" width="229" height="105" rx="17" fill="#243b4c"/><circle cx="138" cy="218" r="20" fill="#ddd6ba"/><circle cx="310" cy="218" r="20" fill="#ddd6ba"/><path d="m136 277-45 57m221-57 47 57" stroke="#e0dfce" stroke-width="22"/></g></svg>