<svg xmlns="http://www.w3.org/2000/svg" viewBox="0 0 100 100"><defs><linearGradient id="peach" x1="0" y1="0" x2="1" y2="1"><stop stop-color="#ffddc1"/><stop offset="1" stop-color="#ff967f"/></linearGradient></defs><rect width="100" height="100" rx="29" fill="url(#peach)"/><path d="M25 100C49 55 68 53 100 49v22a29 29 0 0 1-29 29Z" fill="#ff957c" opacity=".23"/><circle cx="50" cy="50" r="28.2" fill="none" stroke="#202426" stroke-width="5.4"/><path fill="#202426" fill-rule="evenodd" d="M64.9 32.2c1.7-.8 2.6.1 1.8 1.8L58.4 56a5 5 0 0 1-2.7 2.7l-22.6 9c-1.7.7-2.6-.2-1.8-1.9l9.1-22.3a5 5 0 0 1 2.6-2.6ZM46.3 46.5l-3.6 10 10.3-4.1 3.4-9.5Z"/></svg>